<?xml version="1.0" standalone="no"?>
<!DOCTYPE svg PUBLIC "-//W3C//DTD SVG 20010904//EN"
 "http://www.w3.org/TR/2001/REC-SVG-20010904/DTD/svg10.dtd">
<svg version="1.0" xmlns="http://www.w3.org/2000/svg"
 width="920.000000pt" height="920.000000pt" viewBox="0 0 920.000000 920.000000"
 preserveAspectRatio="xMidYMid meet">
<metadata>
Created by potrace 1.14, written by Peter Selinger 2001-2017
</metadata>
<g transform="translate(0.000000,920.000000) scale(0.100000,-0.100000)"
fill="#000000" stroke="none">
<path d="M2470 7125 c0 -6 -35 -11 -81 -12 -44 -2 -122 -10 -172 -18 -51 -9
-101 -18 -112 -19 -35 -6 -110 -28 -120 -35 -5 -3 -21 -6 -35 -6 -14 0 -28 -4
-31 -8 -3 -5 -12 -9 -20 -11 -26 -4 -94 -28 -105 -37 -6 -5 -14 -6 -17 -2 -4
3 -7 2 -7 -4 0 -6 -7 -14 -16 -17 -10 -4 -13 -2 -7 6 4 7 -6 3 -21 -10 -16
-12 -32 -19 -37 -16 -5 3 -9 2 -9 -3 0 -4 -20 -17 -45 -28 -25 -11 -45 -23
-45 -26 0 -4 -13 -10 -30 -14 -16 -4 -30 -11 -30 -16 0 -6 -4 -7 -10 -4 -5 3
-10 1 -10 -4 0 -6 -7 -11 -15 -11 -8 0 -15 -4 -15 -9 0 -5 -9 -13 -20 -16 -11
-4 -18 -10 -15 -15 3 -4 -5 -10 -18 -14 -12 -3 -34 -16 -49 -28 -15 -13 -36
-30 -46 -38 -19 -14 -107 -91 -160 -137 -14 -13 -22 -23 -19 -23 3 0 -6 -12
-21 -27 -15 -15 -30 -27 -34 -25 -4 1 -4 -6 -1 -15 4 -11 3 -14 -5 -9 -7 4
-12 3 -12 -2 0 -5 -16 -25 -37 -45 -20 -20 -33 -37 -28 -37 4 0 -3 -10 -17
-23 -13 -12 -27 -29 -31 -37 -21 -41 -34 -59 -40 -53 -4 3 -7 -1 -7 -10 0 -8
-7 -23 -16 -31 -8 -9 -12 -16 -7 -16 4 0 3 -4 -3 -8 -5 -4 -19 -25 -30 -47
-12 -22 -30 -58 -42 -80 -32 -62 -102 -225 -95 -225 3 0 0 -7 -7 -15 -7 -8 -9
-15 -5 -15 4 0 3 -6 -3 -12 -5 -7 -13 -29 -17 -48 -4 -19 -10 -39 -13 -45 -6
-9 -7 -15 -16 -65 -2 -14 -5 -25 -6 -25 -2 0 -9 -34 -15 -74 -2 -18 -6 -41 -9
-50 -15 -53 -28 -341 -16 -341 3 0 6 -8 6 -17 2 -35 15 -188 19 -213 2 -14 6
-38 9 -55 3 -16 8 -48 11 -69 3 -22 10 -45 15 -51 5 -7 7 -14 5 -17 -3 -3 -1
-17 5 -32 5 -15 12 -37 14 -49 6 -26 42 -130 61 -172 8 -16 14 -33 15 -37 1
-11 109 -217 120 -231 6 -7 33 -47 61 -89 29 -43 56 -78 60 -78 5 0 9 -5 9
-10 0 -12 38 -56 125 -146 33 -34 68 -72 78 -84 10 -11 23 -18 29 -14 6 4 8 3
5 -3 -4 -6 4 -18 17 -26 13 -9 29 -22 37 -29 8 -7 31 -24 51 -38 21 -14 38
-28 38 -32 0 -5 5 -8 11 -8 6 0 28 -14 48 -30 56 -48 61 -51 61 -46 0 7 117
-62 142 -83 10 -9 20 -14 22 -11 2 3 14 -4 27 -15 13 -12 19 -14 14 -5 -7 12
-6 13 6 3 8 -6 18 -11 22 -11 8 0 101 -35 155 -59 18 -8 45 -17 60 -19 15 -3
34 -7 42 -11 8 -3 18 -7 23 -8 4 -2 8 -3 10 -5 4 -3 81 -21 112 -25 11 -2 20
-4 20 -5 0 -1 12 -4 28 -6 15 -2 39 -6 55 -8 15 -2 27 -5 27 -6 0 -14 402 -20
490 -8 28 5 64 10 80 12 17 3 53 10 80 16 28 6 57 13 66 15 9 2 49 13 90 25
41 12 79 23 84 24 6 2 27 10 49 19 21 9 41 17 43 17 11 0 218 104 224 113 3 5
10 9 15 9 18 1 275 178 259 178 -4 0 5 10 21 22 38 29 144 128 137 128 -3 0 1
8 10 18 10 10 14 22 10 27 -5 4 -3 5 4 1 7 -4 37 23 77 72 37 45 73 79 83 79
10 0 33 -9 51 -19 18 -10 39 -18 46 -18 7 0 19 -7 26 -15 7 -9 15 -13 18 -11
2 3 25 -5 51 -18 32 -17 63 -24 101 -23 53 0 107 -17 122 -38 4 -5 8 -6 8 -2
0 4 10 2 23 -5 12 -7 25 -11 30 -10 4 1 7 -3 7 -8 0 -6 9 -10 20 -10 11 0 29
-9 40 -20 11 -11 26 -20 34 -20 8 0 18 -4 21 -10 3 -5 15 -10 26 -10 10 0 19
-4 19 -8 0 -5 11 -14 25 -20 14 -6 25 -19 25 -27 0 -27 25 -44 87 -60 64 -17
88 -38 73 -65 -5 -9 -7 -30 -4 -45 5 -30 41 -68 55 -59 5 3 9 0 9 -5 0 -6 7
-11 15 -11 8 0 15 -4 15 -8 0 -5 6 -9 13 -9 11 0 110 -44 239 -107 26 -13 44
-27 40 -32 -4 -5 -3 -6 2 -2 5 4 21 1 37 -8 16 -8 29 -11 29 -8 0 4 8 0 18 -8
9 -9 34 -21 55 -29 20 -7 37 -17 37 -22 0 -4 4 -6 9 -2 5 3 17 -2 25 -11 9 -8
16 -13 16 -10 0 3 22 -6 49 -19 27 -14 54 -25 60 -25 6 0 11 -4 11 -10 0 -5 4
-10 9 -10 5 0 26 -8 47 -17 22 -9 42 -16 47 -15 4 1 7 -3 7 -8 0 -5 3 -9 8 -8
4 1 51 -19 104 -45 54 -26 102 -47 108 -47 5 0 10 -5 10 -11 0 -5 4 -8 9 -4 5
3 12 1 16 -5 4 -6 11 -8 16 -5 5 4 9 2 9 -3 0 -5 18 -15 40 -22 22 -7 40 -18
40 -23 0 -6 3 -8 6 -4 3 3 35 -10 70 -28 36 -19 68 -35 72 -36 4 0 50 -21 102
-47 52 -25 97 -46 100 -47 3 0 44 -20 92 -43 48 -23 92 -42 98 -42 5 0 10 -5
10 -11 0 -5 4 -8 9 -4 5 3 12 1 16 -5 4 -6 10 -8 15 -5 4 3 13 -2 20 -9 6 -8
25 -18 41 -21 16 -4 29 -11 29 -16 0 -5 9 -9 20 -9 11 0 20 -4 20 -10 0 -5 7
-10 15 -10 18 0 57 -20 67 -35 4 -5 8 -7 8 -2 0 4 26 -6 59 -22 32 -17 61 -27
65 -24 3 4 6 1 6 -5 0 -7 9 -12 19 -12 11 0 21 -5 23 -10 2 -6 14 -12 27 -15
12 -2 30 -10 38 -17 8 -7 22 -13 31 -15 9 -1 18 -7 20 -13 2 -5 8 -8 13 -4 5
3 9 1 9 -4 0 -5 6 -9 13 -9 6 0 55 -21 108 -47 53 -25 102 -46 108 -46 6 0 11
-4 11 -10 0 -5 5 -10 12 -10 7 0 55 -21 107 -46 52 -26 100 -47 107 -48 7 -1
18 -7 26 -14 8 -6 18 -9 21 -5 4 3 7 1 7 -6 0 -7 4 -9 10 -6 6 3 10 2 10 -4 0
-5 14 -12 30 -16 17 -4 30 -11 30 -16 0 -5 3 -9 8 -8 15 2 52 -14 52 -23 0 -5
6 -8 13 -5 6 2 23 -4 36 -14 13 -10 27 -16 32 -13 5 3 9 0 9 -6 0 -7 7 -10 15
-6 8 3 15 1 15 -4 0 -6 3 -9 8 -8 4 1 20 -4 35 -10 16 -7 33 -10 38 -6 5 3 9
1 9 -3 0 -5 19 -8 43 -6 61 4 67 5 67 15 0 4 8 8 17 8 9 0 13 3 10 7 -4 3 2
12 13 20 19 13 100 125 100 138 0 3 11 23 25 45 14 22 23 40 19 40 -3 0 4 17
15 37 33 63 60 149 67 214 5 49 4 60 -6 54 -9 -6 -11 -4 -6 4 9 14 -52 74 -65
65 -5 -3 -9 -2 -9 3 0 8 -109 63 -124 62 -5 0 -12 3 -15 8 -11 15 -50 33 -71
33 -12 0 -18 5 -15 10 3 6 -1 10 -10 10 -9 0 -27 7 -40 16 -13 9 -29 13 -35 9
-5 -3 -10 1 -10 10 0 9 -4 14 -9 10 -5 -3 -17 2 -25 11 -9 8 -16 13 -16 9 0
-3 -10 0 -22 7 -13 7 -26 11 -30 10 -5 -1 -8 2 -8 8 0 5 -7 10 -16 10 -9 0
-28 8 -42 19 -15 10 -44 24 -64 32 -21 7 -38 17 -38 21 0 4 -9 8 -20 8 -11 0
-20 5 -20 10 0 6 -3 9 -7 9 -23 -4 -43 2 -38 11 3 6 -1 10 -9 10 -8 0 -36 11
-61 25 -25 14 -45 23 -45 20 0 -4 -13 3 -30 15 -16 12 -30 18 -30 14 0 -4 -9
1 -21 12 -12 10 -23 18 -25 16 -6 -3 -98 41 -105 51 -3 5 -10 9 -15 9 -16 1
-47 14 -191 86 -79 39 -143 68 -143 66 0 -3 -7 2 -16 10 -8 9 -20 14 -25 11
-5 -4 -9 -2 -9 4 0 5 -13 12 -30 16 -16 4 -30 10 -30 13 0 4 -32 20 -70 36
-39 17 -70 33 -70 38 0 4 -6 8 -14 8 -8 0 -54 20 -102 43 -258 127 -300 147
-308 146 -5 0 -12 3 -15 8 -3 4 -26 18 -51 30 -25 11 -121 57 -213 102 -93 45
-172 81 -178 81 -5 0 -9 5 -9 10 0 6 -6 10 -14 10 -7 0 -49 18 -92 40 -43 22
-85 40 -91 40 -7 0 -13 5 -13 11 0 5 -4 7 -10 4 -5 -3 -10 -1 -10 4 0 6 -3 10
-7 9 -5 -1 -41 14 -81 35 -40 20 -79 37 -87 37 -7 0 -15 4 -17 9 -1 5 -10 11
-18 13 -8 2 -17 6 -20 9 -3 3 -35 20 -72 37 -67 32 -128 42 -128 20 0 -6 -3
-8 -6 -5 -4 3 -15 2 -25 -3 -11 -7 -27 -7 -43 0 -17 6 -27 6 -32 -2 -5 -7 -3
-8 6 -3 9 6 11 4 5 -5 -5 -9 -18 -1 -44 28 -34 37 -41 40 -84 38 -30 -1 -48 3
-51 11 -3 7 -12 10 -21 7 -8 -3 -15 -1 -15 6 0 6 -4 8 -10 5 -6 -3 -10 -1 -10
4 0 6 -9 11 -20 11 -11 0 -20 5 -20 10 0 6 -7 10 -16 10 -8 0 -22 7 -31 15 -8
8 -19 13 -24 10 -5 -4 -9 -1 -9 5 0 6 -4 9 -9 6 -4 -3 -19 3 -31 14 -26 22
-35 26 -24 9 7 -12 -47 21 -57 34 -3 5 -9 8 -13 7 -17 -5 -48 10 -44 22 3 7
-7 23 -21 36 -24 20 -35 22 -66 11 -6 -2 -12 1 -15 6 -10 21 -35 45 -47 45 -7
0 -13 4 -13 8 0 5 -22 8 -50 8 -53 -1 -58 3 -56 47 1 15 -1 27 -5 27 -11 0
-18 40 -7 46 5 3 7 12 4 20 -3 7 -1 16 5 19 5 4 7 11 4 16 -4 5 -2 9 3 9 10 0
9 36 -1 46 -10 11 -8 36 2 30 5 -3 11 11 15 32 3 20 9 57 13 82 10 62 10 381
0 455 -26 188 -84 385 -163 550 -13 28 -24 56 -24 63 0 6 -4 12 -9 12 -5 0
-16 17 -25 38 -9 20 -25 51 -36 67 -11 17 -23 38 -26 48 -4 9 -10 17 -15 17
-5 0 -9 7 -9 15 0 8 -4 15 -10 15 -5 0 -10 7 -10 15 0 8 -4 15 -10 15 -5 0
-10 4 -10 10 0 10 -21 39 -56 76 -12 13 -20 25 -17 27 2 3 -7 14 -21 25 -15
11 -26 23 -26 27 0 6 -142 147 -207 205 -69 61 -282 210 -302 210 -6 0 -11 5
-11 10 0 6 -7 10 -15 10 -8 0 -15 5 -15 10 0 6 -7 10 -15 10 -17 0 -56 20 -66
33 -3 5 -10 9 -15 9 -15 1 -57 17 -86 33 -15 9 -31 16 -35 17 -8 1 -21 4 -50
14 -10 3 -19 5 -20 5 -2 0 -22 7 -45 15 -94 33 -211 61 -333 79 -22 3 -58 8
-80 12 -22 3 -74 6 -115 7 -41 0 -78 6 -82 11 -5 7 -8 7 -8 0z m360 -74 c595
-101 1108 -483 1385 -1030 46 -91 109 -251 99 -251 -3 0 0 -9 6 -20 14 -26 70
-248 70 -277 0 -13 -3 -23 -7 -23 -5 0 -8 -100 -8 -223 -1 -210 -5 -259 -36
-378 -5 -22 -17 -39 -28 -42 -13 -3 -20 -18 -25 -51 -24 -157 -183 -526 -227
-526 -23 0 -41 -24 -43 -58 -2 -30 -43 -90 -61 -91 -6 -1 -46 -39 -89 -86
-164 -179 -420 -352 -651 -443 -207 -81 -424 -122 -662 -126 -87 -1 -164 -5
-170 -9 -6 -4 -44 -2 -82 4 -39 6 -77 9 -83 7 -17 -6 117 -27 242 -38 228 -19
533 27 751 114 72 29 109 33 109 13 0 -23 -180 -94 -317 -126 -207 -48 -516
-72 -678 -51 -134 17 -285 51 -285 65 0 8 -8 11 -20 8 -22 -6 -200 55 -200 68
0 12 -55 39 -80 39 -38 0 -268 133 -310 180 -3 3 -18 14 -33 23 -39 25 -62 44
-118 98 -27 25 -63 59 -81 75 -43 40 -101 106 -152 174 -22 30 -43 57 -46 60
-15 15 -50 71 -50 80 0 5 -4 10 -10 10 -5 0 -10 6 -10 14 0 8 -4 16 -8 18 -11
4 -100 187 -135 279 -36 90 -84 282 -104 409 -19 129 -22 400 -4 525 14 101
58 285 72 300 5 5 9 17 9 27 0 19 66 196 80 213 4 6 29 51 55 100 25 50 60
107 76 127 16 20 29 41 29 47 0 5 3 11 8 13 4 2 20 21 37 43 51 68 67 87 165
185 87 88 226 201 282 231 13 7 25 15 28 18 8 11 127 79 149 86 12 3 21 11 21
17 0 5 7 8 15 4 8 -3 15 0 15 6 0 6 3 9 6 6 3 -4 35 7 72 24 92 41 143 64 167
72 40 15 127 36 149 36 13 0 36 6 52 14 92 46 444 55 664 17z m1872 -2731 c4
-28 2 -33 -14 -36 -20 -3 -42 21 -33 36 8 13 45 13 47 0z"/>
<path d="M1870 3532 c37 -21 203 -77 255 -87 29 -5 29 -5 -5 11 -19 9 -51 20
-70 25 -19 4 -66 19 -105 32 -107 38 -113 40 -75 19z"/>
<path d="M2178 3433 c7 -3 16 -2 19 1 4 3 -2 6 -13 5 -11 0 -14 -3 -6 -6z"/>
</g>
</svg>
